<svg xmlns="http://www.w3.org/2000/svg" viewBox="0 0 640 520" role="img" aria-labelledby="title desc">
  <title id="title">Accessible online learning workspace</title>
  <desc id="desc">A calm illustration of course cards, captions, audio controls, and study materials.</desc>
  <rect width="640" height="520" rx="34" fill="#f6f7f4"/>
  <rect x="68" y="76" width="504" height="330" rx="22" fill="#ffffff" stroke="#d8dfdb" stroke-width="4"/>
  <rect x="96" y="108" width="252" height="176" rx="18" fill="#eef4f1"/>
  <rect x="374" y="108" width="138" height="34" rx="10" fill="#176b5d"/>
  <rect x="374" y="160" width="104" height="18" rx="9" fill="#d8dfdb"/>
  <rect x="374" y="194" width="132" height="18" rx="9" fill="#d8dfdb"/>
  <rect x="374" y="228" width="82" height="18" rx="9" fill="#d8dfdb"/>
  <circle cx="154" cy="342" r="42" fill="#176b5d"/>
  <path d="M142 342h24M154 330v24" stroke="#ffffff" stroke-width="12" stroke-linecap="round"/>
  <rect x="218" y="314" width="268" height="22" rx="11" fill="#d8dfdb"/>
  <rect x="218" y="354" width="214" height="22" rx="11" fill="#d8dfdb"/>
  <path d="M124 210c42-72 128-76 174-14" fill="none" stroke="#b85f3a" stroke-width="18" stroke-linecap="round"/>
  <rect x="148" y="214" width="128" height="22" rx="11" fill="#176b5d"/>
  <rect x="168" y="248" width="88" height="16" rx="8" fill="#8fd0c2"/>
  <rect x="146" y="438" width="348" height="20" rx="10" fill="#123d39" opacity="0.18"/>
</svg>
